<?xml version="1.0" encoding="UTF-8" standalone="no"?>
<svg
   viewBox="0 0 468 136"
   height="60"
   width="100%"
   version="1.1"
   id="svg134"
   xmlns="http://www.w3.org/2000/svg"
   xmlns:svg="http://www.w3.org/2000/svg">
  <defs
     id="defs4">
    <style
       id="style2">.cls-2{fill:#fff}.cls-4{fill:#edf7f8}.cls-9{fill:#dfe6ea}.cls-10{fill:#dde2e7}.cls-13{fill:#263d80}.cls-25{fill:#cb2b2d}.cls-27{fill:#e4ebf0}.cls-34{fill:#dfe9ef}.cls-42{fill:#e1ebf0}</style>
  </defs>
  <path
     d="M535 78.42v133c0 1.86-.42 2.28-2.29 2.28q-231.83-.08-463.66-.05c-1.27-1.07-1-2.55-1-3.94V82.19c0-3.93.11-4 4.07-4h459.93a6.16 6.16 0 0 1 2.95.23z"
     transform="translate(-67.04 -77.8)"
     style="fill:#263c80"
     id="path6" />
  <path
     d="M147.71 202.26h-36.45c-3.85 0-7.72-.42-10.93-2.66s-6.39-4.65-8.57-8.27c-1.42-2.35-3-4.47-3.34-7.23a52.41 52.41 0 0 1-.34-6.14v-65.64c0-4.67-.2-9.28 1.58-13.79 2-5 5.68-8.33 10.08-11.17 3.74-2.41 7.79-3 12.08-3h71.4a24.37 24.37 0 0 1 13.67 4.18c7.11 4.56 9.11 11.31 10.57 18.7.82 4.11.45 8.25.46 12.38q.08 27.48 0 54.95c0 5.15-.66 10.28-3.15 14.84-4.2 7.67-10.51 12.62-19.59 12.77-12.5.23-24.99.08-37.47.08z"
     transform="translate(-67.04 -77.8)"
     style="fill:#263b7d"
     id="path8" />
  <path
     class="cls-4"
     d="M301.33 143.15a13.57 13.57 0 0 1-6.42 4.95c-1.51.86-.39 1.85-.07 2.71 1.4 3.65 3.12 7.17 4.35 10.89 1 2.46 2.07 4.85 3 7.31.88 2.29.69 2.64-1.68 2.65-3.48 0-7-.07-10.45 0a2.77 2.77 0 0 1-3.08-2.18c-2-5.59-3.82-11.23-5.94-16.78-.22-.58-.17-1.35-.94-1.63-6.28-.29-6.28-.29-6.28 6 0 4.14-.06 8.28 0 12.42 0 1.61-.49 2.21-2.13 2.17-3.49-.09-7-.08-10.47 0-1.52 0-2-.53-2-2q.06-23.1 0-46.18c0-1.69.65-2.11 2.21-2.09 8.06.07 16.12 0 24.18.11a24.45 24.45 0 0 1 11.3 2.62 10.66 10.66 0 0 1 4.41 3.9c2.9 5.07 3.16 10.1.01 15.13zM213.14 146.57c0-7.53.06-15.07 0-22.6 0-1.92.53-2.6 2.53-2.57 7.48.1 15 0 22.44 0a28.07 28.07 0 0 1 7.41.85c6.88 1.85 10.78 6.76 11 13.87s-3.23 12.13-10.1 14.5c-5.16 1.78-10.5 1.53-15.8 1.41-2.26-.05-3 .53-2.94 2.87.19 4.8 0 9.6.1 14.4.05 1.92-.65 2.43-2.45 2.37-3.32-.1-6.65-.11-10 0-1.79.06-2.27-.62-2.26-2.31.11-7.56.07-15.17.07-22.79zM347.46 171.69c-7.35 0-7.42 0-9.51-7.09-.54-1.84-1.35-2.51-3.28-2.44-4.16.14-8.32.1-12.48 0a2.54 2.54 0 0 0-2.9 2c-.8 2.42-.93 5.56-2.85 7s-5.15.33-7.79.52h-1.5c-1.58.1-1.8-.55-1.3-1.95 2-5.63 3.86-11.3 5.79-16.94 3.31-9.65 6.67-19.28 9.88-29 .61-1.84 1.5-2.43 3.38-2.36 3.65.13 7.32.09 11 0a2.39 2.39 0 0 1 2.72 1.87q7.92 23.05 16 46.06c.6 1.71.37 2.43-1.61 2.3-1.88-.07-3.71.03-5.55.03zM370.29 140a12.45 12.45 0 0 1 7.51-3.91c5.91-.74 10.75 1.64 13.26 7.09 3.5 7.6 3.52 15.34-.66 22.68a13.48 13.48 0 0 1-21.68 2.68c-1.33-1.36-1.94-1.46-2.68.39-.4 1-.49 2.54-1.92 2.64a41.53 41.53 0 0 1-6.21-.07c-.86-.06-.73-1-.73-1.63v-46.46c0-1.61.72-2 2.12-1.93 2.83.06 5.66.1 8.48 0 1.69-.07 2.12.61 2.09 2.18-.07 4.55 0 9.11 0 13.66a3.93 3.93 0 0 0 .42 2.68zM494 156.6c-3.33 0-6.66.11-10 0-2.16-.1-2.39.83-1.86 2.53a7.28 7.28 0 0 0 5.52 5.21c3.41.8 6.64.06 8.78-2.74 1.45-1.89 2.66-1.76 4.37-.8.64.37 1.37.59 2.05.9 3.84 1.72 3.84 1.72.78 4.84-6.62 6.72-18.63 8.32-26.76 3.57-6.51-3.8-9.59-11.84-7.85-20.42 1.58-7.74 7.4-13 15.47-14 12.87-1.61 21.67 6.06 21.87 19 0 1.52-.4 2-1.93 2-3.44-.14-6.93-.09-10.44-.09zM416.6 169.39c-4 2.79-8.25 4.28-13.11 2.83-3.71-1.1-6.22-3.44-6.95-7.36-.78-4.21.08-7.94 3.61-10.69 3.9-3 8.57-3.73 13.32-4.28 1.39-.16 3.64 1.07 4-1.57.25-1.92.15-3.88-2.18-4.73-2.13-.78-5-.21-5.71 1.69-.92 2.56-2.5 2-4.31 1.65s-3.57-.76-5.37-1.08c-1.49-.26-1.92-.89-1.32-2.38a11.31 11.31 0 0 1 7.54-6.73 27.66 27.66 0 0 1 18.33.6c3.7 1.4 5.25 4.45 5.3 8.23.08 5.79 0 11.59 0 17.38a30.21 30.21 0 0 0 .64 7.16c.17.7.57 1.68-.64 1.67-3.87-.05-7.77.55-11.62-.34-.62-.58.32-2.37-1.53-2.05zM448.81 172.8c-5.94 0-11.24-1.2-15.41-5.56-1.18-1.23-1.71-2.25.29-3.14a11.12 11.12 0 0 0 1.46-1c3.53-2.29 3.51-2.26 6.91.17s6.94 2.58 10.71 1.51c1.06-.29 2.05-.91 2.07-2.2s-1-1.85-2.11-2.1c-2.5-.59-5-1.05-7.55-1.58-1.3-.27-2.6-.55-3.89-.88-4.55-1.18-7.52-4-8.18-8.66-.68-4.9 1.32-8.75 5.52-11.38 5.72-3.59 16.45-3.21 21.9.72a10.63 10.63 0 0 1 1.15 1c2.46 2.35 2.42 2.65-.44 4.37-.49.3-1 .55-1.5.89-1.78 1.23-3.16 1.93-5.35 0s-5.33-2.2-8.32-1.32a2.23 2.23 0 0 0-1.85 2.08c-.06 1.26.83 1.72 1.88 1.93 2.69.52 5.4 1 8.09 1.51a27.12 27.12 0 0 1 6.15 2c3.86 1.83 6.21 4.69 6.18 9.11 0 4.61-1.95 8.13-6.22 10.23-3.69 1.83-7.67 2.11-11.49 2.3z"
     transform="translate(-67.04 -77.8)"
     id="path10" />
  <path
     d="M280.11 151.11c1.34.18 1.27 1.4 1.59 2.26 1.88 5.2 3.76 10.41 5.53 15.65.56 1.66 1.39 2.4 3.21 2.33 3.24-.12 6.48-.1 9.71 0 2.15.06 2.41-.73 1.6-2.52-1.07-2.41-2-4.9-2.95-7.35q.26-.48.57 0c1.21 2.81 2.39 5.63 3.62 8.43.54 1.21.36 1.9-1.12 1.9h-13c-1.57 0-1.87-1-2.26-2.17q-3.21-9.29-6.5-18.53z"
     transform="translate(-67.04 -77.8)"
     style="fill:#bdd0e0"
     id="path12" />
  <path
     d="M301.33 143.15c1.39-3.53 2.64-7.08 1.4-10.94-.45-1.39-.92-2.77-1.38-4.16 3.42 3.74 3.41 11.46-.02 15.1z"
     transform="translate(-67.04 -77.8)"
     style="fill:#99aecd"
     id="path14" />
  <path
     d="M299.37 161.44h-.57c-1.5-3.65-3-7.28-4.48-10.95-.34-.86-1.36-2.05.59-2.42-.66 1 0 1.88.33 2.78 1.27 3.59 3.17 6.91 4.13 10.59z"
     transform="translate(-67.04 -77.8)"
     style="fill:#a9bdd6"
     id="path16" />
  <path
     d="M416.6 169.39c2.39-.74 1.21 1.24 1.56 2.05-.83-.44-.53-1.75-1.56-2.05z"
     transform="translate(-67.04 -77.8)"
     style="fill:#6c83b2"
     id="path18" />
  <path
     class="cls-4"
     d="M96.48 167c-1.15-6.38-.41-12.72.59-19a86.78 86.78 0 0 1 10.5-30.62 10.4 10.4 0 0 1 2.3-3.2c2.06-1.88 3.52-4.25 5.81-6 4.12-3.1 8.43-3.25 13.11-2 4 1.09 7.33 3.3 10.62 5.68a13.31 13.31 0 0 0 2.67 1.77c2.17 2.36 5.17 2.82 8.08 3.51-.62 3.06 1.07 5 3.13 6.93s3.4 4.05 5.38 5.93c.58-.52.35-1.23.48-1.82.55-2.59 1.93-3.88 4.5-3.61 2.07.22 2.7-.42 3-2.44a7.66 7.66 0 0 1 12.2-4.78 5.7 5.7 0 0 1 2.08 4.34c.26 2.57.62 2.87 3.27 3 3.5.13 4.75 1.25 5.3 4.64a14.28 14.28 0 0 1 .07 4 4.2 4.2 0 0 1-4.53 4c-3.72 0-3.75 0-4.07 3.48a3.43 3.43 0 0 1-2.82 3.33 8.12 8.12 0 0 1-2.93.4c6.7-.51 13.14 1.32 19.67 2.27 3.11.46 3.19.57 2.53-2.55-2.41-11.29-6.35-21.94-13.93-30.89-2.63-3.09-5.67-5.87-10.12-6.2a1.9 1.9 0 0 1-1.49-.81c1-1.54 2.66-.89 3.94-.84 4.1.16 7.07 2.62 9.68 5.49 6.26 6.84 9.56 15.21 12.31 23.85a109.49 109.49 0 0 1 3.52 15.94 4 4 0 0 1-.11 2.19 2.34 2.34 0 0 0-2 2.76c.07 1-.27 2.19-1.8 2.13a1.93 1.93 0 0 1-1.34-1.36 1.71 1.71 0 0 1 0-.81c.58-3.54.31-4-3-4.88a79.72 79.72 0 0 0-20.56-2.72 18.76 18.76 0 0 1-5.18-.27 6 6 0 0 1-2.66-2.52c-5.53-8.27-11.12-16.48-18.16-23.6a9 9 0 0 1-1.42-2 28.64 28.64 0 0 0-16.5-10.18 14.43 14.43 0 0 0-11.09 1.92 3.2 3.2 0 0 0-1.35 1.4c-1.46 2.27-3.4 4.21-4.41 6.77a3.33 3.33 0 0 1-.27.61c-.82 1.27-1.87 2.43-2 4.06a2.36 2.36 0 0 1-.2.62 8.44 8.44 0 0 0-1.19 1.92 3 3 0 0 1-.36.56c-.9 1.69-1.94 3.34-1.36 5.4a4 4 0 0 1-.33 1.77c-1.2 3.12-2.53 6.2-2 9.68a3.25 3.25 0 0 1-.15 1.69c-.58.74-.65 1.84-1.59 2.33-.48-.08-.5.15-.33.51a2 2 0 0 1-.08.92 2.49 2.49 0 0 0 0 2.49 3 3 0 0 1-.42 1.66c-1.24 1.45-.64 2.88 0 4.31a6.2 6.2 0 0 1 0 1.72c-.07 1.15-.39 2.39.1 3.42.65 1.38 1.94-.21 2.88.32a2.49 2.49 0 0 1 .6.42c.17 1.23-.76 1.78-1.56 2.32a3 3 0 0 0-1.35 3.71 89.46 89.46 0 0 1 11.37-6.14c11.41-5.49 23.5-8.69 36-10.71a6.27 6.27 0 0 1 1.5 0c3.17.4 6.28-.3 9.4-.57 2.87-.25 3.52-.22 5 2.44 1.85 3.24 3.81 6.41 5.93 9.48a5.46 5.46 0 0 1 .61 1.08c.24.62.55 1.38-.09 1.82s-1.08-.45-1.59-.76c-3.69-5.18-9-7.62-15.05-8.76a32 32 0 0 0-18.08 1.66c-4.85 1.92-8.47 5.37-11.5 9.51-2.64 3.6-4.75 7.54-7.11 11.32-4.54 7.24-14.52 5.59-18.59-1.59C98 175 97.27 171 96.48 167z"
     transform="translate(-67.04 -77.8)"
     id="path20" />
  <path
     class="cls-9"
     d="M200.92 153a87.54 87.54 0 0 0-6.69-26.76c-2.59-6.21-5.67-12.12-10.76-16.72-3.28-3-6.93-4.79-11.52-3.27a2.85 2.85 0 0 1-2.06 1.22 27 27 0 0 0-9.82 5.1 36.29 36.29 0 0 1-6.61 4.35c-1.09.51-2.24 1.21-3.47.28-3.11-.17-6-.82-7.93-3.59 5.77 4.37 10.82 2.76 15.91-1.51 4.42-3.71 9.37-6.54 15.41-7a12.84 12.84 0 0 1 9.12 2.56c5 3.77 8.2 8.89 10.78 14.41 6.79 14.54 10.28 29.74 8.62 45.85-.54 5.17-1.94 10.12-5.76 14s-10 4.6-13.77 1.55a.54.54 0 0 1 0-.69c1.74-.63 3 .93 4.76.9a10.56 10.56 0 0 0 9.24-4.94 24.31 24.31 0 0 0 3.83-11.65v-.81c.8-4.16.34-8.34.29-12.51a2.15 2.15 0 0 1 .43-.77z"
     transform="translate(-67.04 -77.8)"
     id="path22" />
  <path
     class="cls-10"
     d="M96.48 167c1.13 1.8 1 3.94 1.55 5.91a18.52 18.52 0 0 0 6.07 9.74c3.51 2.93 10.38 2.13 13.24-1.46s5-8 7.67-11.86c5.18-7.65 12.29-11.81 21.53-12.33 6.24-.35 12.32.29 17.76 3.68 2.41 1.5 5.08 2.83 6.07 5.85-9-9.39-19.92-10.72-31.83-7.17-5.57 1.66-9.6 5.5-12.75 10.23-2.26 3.37-4.22 6.94-6.49 10.3-5.08 7.55-14.25 7.32-19.14-.45A23.43 23.43 0 0 1 96.48 167z"
     transform="translate(-67.04 -77.8)"
     id="path24" />
  <path
     class="cls-9"
     d="M142.08 113.64c-2-.06-3.18-1.66-4.6-2.71a26.82 26.82 0 0 0-11.76-5c-5.44-.88-9.63 1.58-13 5.61-.85 1-1.5 2.18-2.84 2.66 2.89-4.51 6.44-8.26 12.06-9a18.67 18.67 0 0 1 10.59 2 36.36 36.36 0 0 1 9.55 6.44z"
     transform="translate(-67.04 -77.8)"
     id="path26" />
  <path
     d="M182.45 182.86c0 .21 0 .41-.08.62-2.66-1.5-3.78-4.29-5.46-6.6a37.14 37.14 0 0 1-2.44-4.48 1 1 0 0 1 1.13-.69c2.29 1.54 3.68 3.92 5.5 5.91a7.86 7.86 0 0 0 3 2.48c2 .74 2.66.42 3.21-1.71 1.62-.47 2.27.68 3 1.76a1.66 1.66 0 0 1-.39 1.85c-1.25 1-2.73.47-4.1.61-2.41.33-4.08-.84-5.58-2.88.7 1.27 2.14 1.7 2.21 3.13z"
     transform="translate(-67.04 -77.8)"
     style="fill:#d6dae0"
     id="path28" />
  <path
     d="m175.47 171.93-1 .47-4.09-5.83 1.33.41c0-.85-.55-1.38-.84-2a.43.43 0 0 1 .15-.64 1.62 1.62 0 0 1 1.68.81c1.24 2.11 3.06 4.02 2.77 6.78z"
     transform="translate(-67.04 -77.8)"
     style="fill:#ccc9d3"
     id="path30" />
  <path
     class="cls-13"
     d="M273.83 136.13c0-5.07 0-5.09 5.06-5.06a19.73 19.73 0 0 1 5.68.4 4.81 4.81 0 0 1 3.75 4.67c.13 2.41-1.24 3.91-3.35 4.67-3.28 1.18-6.72.61-10.11.66-.89 0-1-.67-1-1.38zM227.75 136.76c0-5.74 0-5.74 5.69-5.7a13.64 13.64 0 0 1 3.71.37c2.67.76 3.94 2.4 4 5.25a5.25 5.25 0 0 1-3.57 5.4c-2.91 1-5.93.45-8.91.54-1 0-.95-.71-.95-1.4z"
     transform="translate(-67.04 -77.8)"
     id="path32" />
  <path
     d="M329.12 136.65q2.13 6.94 4.27 13.88c.35 1.15-.44 1.22-1.25 1.22h-7.22c-1.08 0-1.56-.32-1.17-1.47 1.55-4.53 3.06-9.07 4.58-13.61z"
     transform="translate(-67.04 -77.8)"
     style="fill:#273e81"
     id="path34" />
  <path
     class="cls-13"
     d="M369.82 153.69v-4.95c0-2.72 1.42-4.37 4.15-4.86a4.28 4.28 0 0 1 5.24 3.09 24.85 24.85 0 0 1 0 14.88 4.51 4.51 0 0 1-5.05 3.53c-2.23-.21-3.91-1.81-4.18-4.52a71.37 71.37 0 0 1-.05-7.17z"
     transform="translate(-67.04 -77.8)"
     id="path36" />
  <path
     d="M483.53 145c2.82-3 5.88-3 8.47.1.13.3 0-.11.14.2 1.62 4.06 1.34 4.48-2.9 4.48h-4.68c-2.17-.06-2.53-.63-1.89-2.76a9.23 9.23 0 0 1 .86-2.02z"
     transform="translate(-67.04 -77.8)"
     style="fill:#273f82"
     id="path38" />
  <path
     d="M483.53 145c-1.29 4.9-1.57 4.36 3.57 4.4h1.25c4.76-.05 4.73.64 3.65-4.3.92.63 1 1.66 1.23 2.6.42 1.6-.15 2.32-1.85 2.27-2.15-.07-4.3 0-6.45 0-2.94 0-3.38-.61-2.45-3.36.21-.61.34-1.32 1.05-1.61z"
     transform="translate(-67.04 -77.8)"
     style="fill:#657dad"
     id="path40" />
  <path
     d="M417.51 159.74c0 3.48-1.38 5.07-4.59 5.22a3.8 3.8 0 0 1-4.1-2.54 3.55 3.55 0 0 1 1.42-4.36 11 11 0 0 1 2.86-1.43c4.18-1.43 4.41-1.25 4.41 3.11z"
     transform="translate(-67.04 -77.8)"
     style="fill:#283f82"
     id="path42" />
  <path
     class="cls-4"
     d="M150 117.22c4-.82 6.91-3.48 10-5.79 3.58-2.63 7.35-4.81 11.92-5.16 5.33-.72 8.79 2.57 11.9 6 5.09 5.54 8.12 12.26 10.82 19.28a99.29 99.29 0 0 1 4.05 14.22c.57 2.58 0 3.06-2.45 2.34-4-1.16-8.19-1.23-12.23-2.08-3.61-.76-7.28-.88-10.95-1.44 1.74-.52 3.45-.79 5.11-1.37 1.45-.51 2-1.13 1.85-2.67-.29-3.77.93-4.82 4.6-4.24 2.61.42 4-.81 3.93-3.53 0-.4.1-.81.13-1.22.41-4.43-.84-5.82-5.23-5.86-2.66 0-3.47-.84-3.53-3.59-.08-3.54-1.17-4.64-4.8-4.86-5.36-.33-7.39 1.33-7.65 6.58-.1 2.1-1.38 1.94-2.72 1.85-4.21-.26-4.74.21-4.82 4.32 0 .77.45 1.92-.47 2.24s-1.22-.93-1.67-1.52c-2.49-3.25-5.56-6-8.09-9.21-1.37-1.84-1.58-2.97.3-4.29z"
     transform="translate(-67.04 -77.8)"
     id="path44" />
  <path
     d="M150.94 154a130.71 130.71 0 0 0-25.86 6.24 112.58 112.58 0 0 0-23.74 11.43c-1-4.4-.9-4.54 2.42-6.61.47-.3 1.09-.44 1.31-1.06.26-1.05 1-1.3 2-1.33 2.62 1 2.62 1 4.3-2.48a33.45 33.45 0 0 1 9.47-4.18 2.47 2.47 0 0 1 .72.12c2.34 1.25 2.34 1.25 4.08-2 3.58-1.49 7.18-2.92 11.13-3.12 2.77 1.51 2.77 1.51 4.81-.92a23.58 23.58 0 0 1 10.08-1.92c2.06 2.2 2.06 2.2 3.89-.27a2 2 0 0 1 1-.71 17.37 17.37 0 0 1 4.19-.47c2-.32 4.09-1 6.08.18 5 .57 10.1.1 15.14.77a84.22 84.22 0 0 1 13.88 2.77c.94.3 1.89.63 1.64 1.77s1.16 3-1 3.8c-2 .54-3.28 2.09-4.58 3.57-3.83 3.22-7.54 6.58-11.16 10-1.44 1.2-2.84 1.7-4.24-.07s-1.26-3.3 1-5.45c3.67-2.78 6.9-6.05 10.63-9.21a20.55 20.55 0 0 0-6.95-1c-1-.06-1.42.74-1.91 1.38a45.55 45.55 0 0 0-3.51 5.69c-.89.9-1.67 2.37-3.21 1.55a4 4 0 0 1-2.13-4.33 5.49 5.49 0 0 1 1.37-2.83c.39-.63 1.46-1.24.86-2s-1.77-.21-2.68.06a22.49 22.49 0 0 1-5.68 0 3.3 3.3 0 0 0-2.59-.6c-3.56.62-7.18.7-10.76 1.23z"
     transform="translate(-67.04 -77.8)"
     style="fill:#263c7d"
     id="path46" />
  <path
     d="M166.76 146.84a28.1 28.1 0 0 1-6.2.54c-1.1-.39-1.74-1.36-2.6-2.11-1 .54-.39 2.13-1.66 2.41-.77.84.07 2.45-1.7 2.92-2.55.68-2.94.54-2.92-2-1.18-1.84-.52-3.81 0-5.53 1.3-4.27.14-7.65-2.73-10.88-2.24-2.53-4.29-5.22-6.73-7.75-.12 5.12-.51 10.19 0 15.25a71.86 71.86 0 0 1 .22 8.42 2.45 2.45 0 0 1-1 2.19c-.43.88.33 2.12-1 2.76-2.07 1-2.87.64-3.39-1.67A2.66 2.66 0 0 1 136 149c0-.91-.07-1.82 0-2.72.33-8.76-.76-17.49-.5-26.24.07-2.33-1.31-3.62-2.91-4.85a16.26 16.26 0 0 0-1.92-1.5 23.24 23.24 0 0 0-5.73-3c-.59-.24-1.47-.46-1.38-1.24.12-1 1.13-.75 1.81-.76 5.86-.08 10.72 2.44 15.26 5.8a43.35 43.35 0 0 1 5.32 4.8 182.37 182.37 0 0 1 20.81 27.55z"
     transform="translate(-67.04 -77.8)"
     style="fill:#d62227"
     id="path48" />
  <path
     d="M121 156.41c-3.21 1.41-6.25 3.18-9.66 4.11-1.28-.36-1.47-1.5-1.68-2.52-1.29-6.48-3-12.86-4.3-19.34a8.28 8.28 0 0 1 .09-4.39l.59-1.64c-.6-2.27.88-4 1.51-6 .67-.53.65-1.59 1.5-2v-.48c.25-1.68 1.46-2.94 2-4.49 1.6-1.82 2-4.57 4.59-5.63 1.58 1.56 1 3.7 1.43 5.54a10.17 10.17 0 0 1 .22 2.7 9.64 9.64 0 0 0 .47 2.71c1.09 6.42 1.87 12.87 2.55 19.33.33 3.19.81 6.36 1.17 9.55.09.97.34 1.83-.48 2.55z"
     transform="translate(-67.04 -77.8)"
     style="fill:#fffeff"
     id="path50" />
  <path
     d="M180.39 168.91c3.2-3.81 7.13-6.84 11-9.95a13.93 13.93 0 0 0 2.89-2.53c.76-.71 1.48-1 2.17.07l1 1a2 2 0 0 1 1.16 2.34 5.46 5.46 0 0 0 0 4.09c.18 1.22-.91 2.1-.87 3.29a4.46 4.46 0 0 1-.42 2.3c-3.78 2.07-8 3-12 4.28-1.52.48-2.11-1-3.13-1.6a3.91 3.91 0 0 1-1.8-3.29z"
     transform="translate(-67.04 -77.8)"
     style="fill:#fefefe"
     id="path52" />
  <path
     d="M105.45 134.27q2.94 13.13 5.89 26.25c.14 1.35.5 2.56-1.22 3.51s-2.44.49-2.89-1.16a1.52 1.52 0 0 1-1.1-1.22c-1.15-4.86-2.58-9.66-2.85-14.68a2.1 2.1 0 0 1 .14-1c-1.09-4.18.05-7.97 2.03-11.7z"
     transform="translate(-67.04 -77.8)"
     style="fill:#d62328"
     id="path54" />
  <path
     d="M103.42 146c1.59 5.54 2.69 11.2 3.81 16.86l-2.16 1.1a4.31 4.31 0 0 0-1.21.18c-3.3 1.46-3.28 1.47-3.33-2A14.46 14.46 0 0 1 101 158a4.82 4.82 0 0 1 0-4.45l.5-1.5a2 2 0 0 1 0-2.48v-1c.14-.2.18-.49.51-.5 1.07-.32-.3-2.21 1.41-2.07z"
     transform="translate(-67.04 -77.8)"
     style="fill:#fdfbfb"
     id="path56" />
  <path
     d="M179.27 123.05c-.06 2.34-2.55 4.54-5.07 4.47s-4.88-2.4-4.74-4.76a4.94 4.94 0 0 1 9.81.29z"
     transform="translate(-67.04 -77.8)"
     style="fill:#2a4383"
     id="path58" />
  <path
     class="cls-25"
     d="M182.92 135.4a4.45 4.45 0 0 1-4.61-4.44c0-2.69 2-4.48 4.86-4.41a4.52 4.52 0 0 1 4.69 4.41 4.62 4.62 0 0 1-4.94 4.44z"
     transform="translate(-67.04 -77.8)"
     id="path60" />
  <path
     d="M165.62 126.55c2.88 0 4.89 1.88 4.83 4.5s-2 4.3-4.76 4.33-4.82-1.84-4.77-4.51 1.94-4.32 4.7-4.32z"
     transform="translate(-67.04 -77.8)"
     style="fill:#294181"
     id="path62" />
  <path
     class="cls-25"
     d="M179.22 138.86a4.88 4.88 0 1 1-5.12-4.38 4.89 4.89 0 0 1 5.12 4.38z"
     transform="translate(-67.04 -77.8)"
     id="path64" />
  <path
     class="cls-9"
     d="M145.92 119.37c-2.84-2-5.24-4.55-8.23-6.38-4.2-2.57-8.59-4.3-14.09-3.68 2.71 1.41 5.47 1.93 7.45 3.85a1.09 1.09 0 0 1-.65.44c-2.11.1-3.73-1.26-5.62-1.86-2.37-.75-3-.38-2.64 2 .66 4.5 1 9 1.66 13.55.19 1.3.43 2.65-.57 3.79-1.71.24-1.53-1.16-1.69-2.09-.83-4.72-1.21-9.5-1.9-14.23-.41-2.82-.39-2.82-3.07-1.7a1.48 1.48 0 0 1-.78-.09l-.3-.25c.56-2 2.38-2.65 4-3.34 4.44-1.88 8.91-1.3 13.23.38 5.28 2.04 9.86 4.98 13.2 9.61z"
     transform="translate(-67.04 -77.8)"
     id="path66" />
  <path
     class="cls-4"
     d="M197.92 160a4.39 4.39 0 0 0-.49-2.48c1.36-.39.9-1.53 1-2.44.12-1.18-.25-2.41.35-3.75.9.42 1 1.86 2.15 1.72v.49a73.47 73.47 0 0 1 0 13.43c-1 .72-.58 2.7-2.42 2.65-.8-.38-.74-1.16-.89-1.85a1.43 1.43 0 0 0-.3-.44l-.37-.36c-.23-1.18.9-1.92 1-3a7 7 0 0 0-.03-3.97zM171.4 144.15c-1.78 1.25-3 1-4-.29-1.23-1.45-2.49-2.87-3.7-4.34-.61-.75-1.55-1.59-.83-2.6s2.08-.87 3.24-.75 1.44 1 1.37 2c-.24 2.83.9 4.83 3.92 5.98zM174 129.16c1.62-.15 2.58.43 2.45 2.22-.1 1.44-.69 2.49-2.31 2.18-1.25-.23-2.82-.14-2.85-2.25s1.18-2.21 2.71-2.15z"
     transform="translate(-67.04 -77.8)"
     id="path68" />
  <path
     class="cls-10"
     d="M150.94 154c4.42-.7 8.8-1.77 13.33-1.05a2.91 2.91 0 0 1 1.87 1.52c1.49 2.38 3.05 4.71 4.41 7.17.46.84 1.16 1.69.47 2.74l-.15.61a80.21 80.21 0 0 1-5.76-9.18c-1.07-2-2.2-2.89-4.85-2.48-3.03.44-6.17 1.03-9.32.67z"
     transform="translate(-67.04 -77.8)"
     id="path70" />
  <path
     class="cls-27"
     d="M115.5 114.24c-1.78 1.58-2.56 4-4.46 5.46.69-2.82 2.71-4.81 4.45-7h.05a1 1 0 0 1-.04 1.54z"
     transform="translate(-67.04 -77.8)"
     id="path72" />
  <path
     d="M107.55 126.66c0 2.1-1.3 3.9-1.51 6-1-.18-.77-.81-.6-1.48.44-1.65.75-3.33 2.11-4.52z"
     transform="translate(-67.04 -77.8)"
     style="fill:#e3eef2"
     id="path74" />
  <path
     class="cls-4"
     d="M196.43 156.5c-1-.63-1.64-.1-2.34.57s-1.4 1.85-2.72 1.89c.71-1.23 1.94-1.93 2.93-2.87.66-.62 1.38-.88 2.14-.14z"
     transform="translate(-67.04 -77.8)"
     id="path76" />
  <path
     d="M101 153.52v4.45c-1.32-1.48-1.7-2.97 0-4.45z"
     transform="translate(-67.04 -77.8)"
     style="fill:#dee8ef"
     id="path78" />
  <path
     class="cls-27"
     d="M111 119.7a8.49 8.49 0 0 1-2 4.49c-.59-2.07 1.15-3.1 2-4.49z"
     transform="translate(-67.04 -77.8)"
     id="path80" />
  <path
     d="M101.55 149.54v2.48c-1.03-.83-1.65-1.66 0-2.48z"
     transform="translate(-67.04 -77.8)"
     style="fill:#dee9ef"
     id="path82" />
  <path
     d="m102.06 148.05-.51.5-.2-.44c-.22-.52-.45-1.38.12-1.44.97-.11.41.89.59 1.38z"
     transform="translate(-67.04 -77.8)"
     style="fill:#e0ebf0"
     id="path84" />
  <path
     class="cls-27"
     d="M109 124.67c-.48.68-.33 1.82-1.5 2 .21-.92.42-1.79 1.5-2z"
     transform="translate(-67.04 -77.8)"
     id="path86" />
  <path
     class="cls-4"
     d="M198.42 169.43c1.23-.43.82-2.5 2.5-2.48-.36 6-1.84 11.57-6.87 15.53a10.14 10.14 0 0 1-11.6.38c-1.7-1.27-2.6-3.15-3.72-5 1.89 2 3.69 4.08 6.72 4.06 1.63.85 3.2 1.19 4.49-.58a9.24 9.24 0 0 0 1-1.28 3.27 3.27 0 0 1 .51-.41c1-.55 1.88-1.39 2.95-1.86.54-.26.5-.79.58-1.27a10.49 10.49 0 0 1 1.81-3.61c1-.67.86-1.63.64-2.6a1.51 1.51 0 0 1 .38-1 .5.5 0 0 1 .61.12zM200.92 166.94v-13.43a37.88 37.88 0 0 1 0 13.43z"
     transform="translate(-67.04 -77.8)"
     id="path88" />
  <path
     d="m171 164.35-6.75-11.43a15 15 0 0 1 6.18-.38 2.75 2.75 0 0 1 2 3c-.15 1.34-1.87 2.13-1.21 3.79 1.09 2.78 1.87 3 4 1.1 2.23.5 2.82 2.07 2.67 4.11-.28 1.14-2.11 1.42-1.63 3 .72 2.34 1.87 2.72 4.15 1.34l2 2.58a8.77 8.77 0 0 1 1.73 2.52c-1.62 3.1-1.18 3.22 2.74 3.57a.87.87 0 0 1 .46.89c.06 1 1.86 1.38 1.23 2.39-.54.85-1.85.27-2.81.38a5 5 0 0 1-4.67-2.23c-1.89-2.35-3.74-4.72-5.61-7.08-1.4-2.55-2.48-5.29-4.48-7.55z"
     transform="translate(-67.04 -77.8)"
     style="fill:#d52328"
     id="path90" />
  <path
     d="m187.33 178.47-.61-.42c.38-1.54 1.64-1.84 2.95-2.09a10.94 10.94 0 0 0 2.89-.49c.9-.3 1.91-.47 2.43.47s-.1 1.71-.91 2.25-1.65 1.59-2.65 2.18a1.11 1.11 0 0 1-1.49 0c-1-.44-1.48-1.62-2.61-1.9z"
     transform="translate(-67.04 -77.8)"
     style="fill:#f3f0f3"
     id="path92" />
  <path
     class="cls-4"
     d="M189.94 181.38c-1.26 2.53-2.64 2.7-4.49.58 1.55-.2 3.07.23 4.49-.58z"
     transform="translate(-67.04 -77.8)"
     id="path94" />
  <path
     class="cls-34"
     d="M189.94 180.39h1.49a1.65 1.65 0 0 1-1.49 1z"
     transform="translate(-67.04 -77.8)"
     id="path96" />
  <path
     class="cls-2"
     d="M122.93 131.2c.3-4.23-.87-8.34-1.17-12.52-.17-2.29-.49-4.58-.73-6.87-.19-1.79.57-2.13 2.21-1.64a39.22 39.22 0 0 1 7.3 3.12 8.15 8.15 0 0 1 2 .89 6 6 0 0 1 3.93 6.07c0 10.38.41 20.76.66 31.14l-11.36 3.15c-1.19-.41-1.16-1.47-1.31-2.44-.94-6-1.48-12-2.34-17.93a3 3 0 0 1 .81-2.97z"
     transform="translate(-67.04 -77.8)"
     id="path98" />
  <path
     d="M141.51 150.3v-28.23a26.59 26.59 0 0 1 4.16 4.51c1.71 2 3.15 4.29 5 6.22a9 9 0 0 1 2.18 9.71 45.42 45.42 0 0 0-1.13 6.09z"
     transform="translate(-67.04 -77.8)"
     style="fill:#fefdfe"
     id="path100" />
  <path
     d="m122.93 131.2 2.84 23.34c0 1.38.53 2.83-1.61 3.46-1.75.52-2.4.1-2.6-1.53-1-4.11-1.17-8.31-1.77-12.46-.94-6.6-1.59-13.23-2.55-19.83-.54-3.76-1.35-7.55-1.12-11.41 1.07-1 2.09-2.74 3.53-2.29 1.2.37.69 2.33.88 3.59.83 5.71 1.6 11.42 2.4 17.13z"
     transform="translate(-67.04 -77.8)"
     style="fill:#d62228"
     id="path102" />
  <path
     d="m177.87 164.57-2.67-4.11c.75-2.89 3-4.89 4.49-7.32a1.24 1.24 0 0 1 1.33-.46c2.54.35 5.09.69 7.62 1.08.72.12 1.46.48.55 1.25-3.79 3.17-7.06 6.99-11.32 9.56z"
     transform="translate(-67.04 -77.8)"
     style="fill:#f9f9fb"
     id="path104" />
  <path
     d="M116.12 112.77c2 14.55 3.92 29.09 5.44 43.7l-.56-.06-4.06-31.78c-.41-.78.12-1.7-.38-2.46-.35-2.64-.7-5.29-1.06-7.93v-1.5z"
     transform="translate(-67.04 -77.8)"
     style="fill:#e9bdc0"
     id="path106" />
  <path
     d="M156.3 147.68c.17-1.13.32-2.26.51-3.39.07-.45 0-1.08.64-1.14s.8.5 1.05.9c.7 1.1 1.37 2.22 2.06 3.33a8.23 8.23 0 0 1-4.26.3z"
     transform="translate(-67.04 -77.8)"
     style="fill:#e9d6db"
     id="path108" />
  <path
     d="M172.4 155.57a10.76 10.76 0 0 1-2-3c.21-.11.42-.33.64-.33 1.11 0 2.74-.67 3.18.39.56 1.18-.59 2.31-1.82 2.94z"
     transform="translate(-67.04 -77.8)"
     style="fill:#cac4d3"
     id="path110" />
  <path
     class="cls-27"
     d="M132.54 114.18a2.76 2.76 0 0 1-2-.89l.51-.13a2.17 2.17 0 0 1 1.49 1.02zM116.56 122.17a4 4 0 0 1 .38 2.46c-.6-.75-.36-1.63-.38-2.46z"
     transform="translate(-67.04 -77.8)"
     id="path112" />
  <path
     class="cls-34"
     d="M191.43 180.37c.77-.85 1.56-1.69 2.31-2.55.4-.47 1.27-.89.76-1.6s-1.21-.15-1.84 0a6.32 6.32 0 0 1-2.88.57c.33-1.77 2-1.78 3.19-2.33s2.6-.86 2.58-2.72c-.92-.41-1.72.13-2.52.43-2 .76-4.05 1.48-6.13 2.08-1 .3-2.09.68-3.05-.22l-1.45-2.57c1.53 2.07 3.35 1.47 5.36.78a59.29 59.29 0 0 1 9.13-2.86c.69-.71-.1-1.74.53-2.47l.5-.49a3.9 3.9 0 0 1 0 3v1c.54 1.12 0 2-.52 3a16 16 0 0 0-2 3.48c.27.64-.07 1.08-.5 1.49-1.31.35-2.04 1.78-3.47 1.98z"
     transform="translate(-67.04 -77.8)"
     id="path114" />
  <path
     d="M197.92 160c1.58 1.33 1.57 2.66 0 4-.55-1.37-.86-2.7 0-4z"
     transform="translate(-67.04 -77.8)"
     style="fill:#e2edf2"
     id="path116" />
  <path
     class="cls-42"
     d="M197.42 166.94c-.07.84.26 1.78-.53 2.47 0-.82 0-1.64.05-2.46z"
     transform="translate(-67.04 -77.8)"
     id="path118" />
  <path
     d="M176.93 122.89a2.44 2.44 0 0 1-2.51 2.44 2.3 2.3 0 0 1-2.59-2.37 2.21 2.21 0 0 1 2.34-2.34 2.42 2.42 0 0 1 2.76 2.27z"
     transform="translate(-67.04 -77.8)"
     style="fill:#d8e4ec"
     id="path120" />
  <path
     d="M183.21 133.32c-1.58 0-2.69-.71-2.73-2.31a2.21 2.21 0 0 1 2.33-2.38c1.55-.1 2.67.59 2.81 2.16s-.95 2.34-2.41 2.53z"
     transform="translate(-67.04 -77.8)"
     style="fill:#e7e5e7"
     id="path122" />
  <path
     d="M165.35 128.62c1.77 0 2.84.73 2.89 2.3s-1.05 2.34-2.59 2.35a2.24 2.24 0 0 1-2.55-2.16 2.2 2.2 0 0 1 2.25-2.49z"
     transform="translate(-67.04 -77.8)"
     style="fill:#d6e2eb"
     id="path124" />
  <path
     d="M174.12 136.48c1.56.24 2.73.8 2.79 2.4a2.56 2.56 0 0 1-5.1.2c-.11-1.63 1.12-2.19 2.31-2.6z"
     transform="translate(-67.04 -77.8)"
     style="fill:#e4e1e3"
     id="path126" />
  <path
     class="cls-42"
     d="M197.93 169.43v-3c.81.89.4 2 .5 3z"
     transform="translate(-67.04 -77.8)"
     id="path128" />
  <path
     class="cls-4"
     d="M197.43 173.41c.17-1 .35-2 .52-3a1.88 1.88 0 0 1-.52 3zM194.93 178.38c.16-.5.33-1 .5-1.49.63 1.18.57 1.3-.5 1.49z"
     transform="translate(-67.04 -77.8)"
     id="path130" />
  <path
     d="M183.85 174.06c3.57-.48 6.73-2.24 10.15-3.15 1-.26 2.05-1.51 3-.28.62.8-1.05 3.78-2.16 4.24-1.67.69-3.51.95-5.06 1.95a5.62 5.62 0 0 0-3.06 1.23c-1.05-.06-2.08 1-3.06.26a4 4 0 0 1-1.84-2.52c-.18-1.37 1.52-.93 2.03-1.73z"
     transform="translate(-67.04 -77.8)"
     style="fill:#283d7d"
     id="path132" />
</svg>
